<svg xmlns="http://www.w3.org/2000/svg" viewBox="0 0 1011 1011">
  <style>
    rect { fill: #ffffff; }
    path { fill: #1c1917; }
    @media (prefers-color-scheme: dark) {
      rect { fill: #1c1917; }
      path { fill: #f5f5f4; }
    }
  </style>
  <rect width="1011" height="1011" rx="121"/>
  <g transform="translate(116.30, 883.80) scale(1,-1)">
    <path d="M350 -29Q287 -29 231.5 1.0Q176 31 133.5 84.5Q91 138 66.5 210.0Q42 282 42 366Q42 469 78.5 553.0Q115 637 177.0 696.5Q239 756 314 786L329 768Q260 719 217 641L505 765Q567 738 619.5 689.0Q672 640 704.0 572.0Q736 504 736 419Q736 333 701.0 253.0Q666 173 608.5 109.5Q551 46 483.5 8.5Q416 -29 350 -29ZM390 331 201 251Q233 177 290.5 129.0Q348 81 426 81Q431 81 436 82V662Q415 673 392 684L390 683ZM465 644V413L602 482Q560 581 465 644ZM166 430Q166 349 192 276L261 306V629L199 603Q183 565 174.5 521.5Q166 478 166 430ZM465 381V308L628 390Q623 424 612 455ZM634 316Q634 339 632 360L465 276V85Q510 95 548.5 125.5Q587 156 610.5 204.5Q634 253 634 316Z"/>
  </g>
</svg>